<?xml version="1.0" encoding="UTF-8"?>
<svg xmlns="http://www.w3.org/2000/svg" xmlns:xlink="http://www.w3.org/1999/xlink" viewBox="0 0 100 100" width="100px" height="100px">
<g id="surface53684156">
<rect x="0" y="0" width="100" height="100" style="fill:rgb(12.156863%,1.960784%,1.960784%);fill-opacity:1;stroke:none;"/>
<path style=" stroke:none;fill-rule:nonzero;fill:rgb(98.431373%,98.431373%,98.431373%);fill-opacity:1;" d="M 37.8125 14 C 37.8125 14 25.078125 14.875 16.75 21.5625 C 16.710938 21.578125 16.664062 21.601562 16.625 21.625 C 15.179688 22.960938 14.09375 25.03125 12.75 28 C 11.40625 30.96875 9.984375 34.789062 8.6875 39.0625 C 6.101562 47.617188 4 58.117188 4 68 C 3.992188 68.351562 4.078125 68.695312 4.25 69 C 7.171875 74.132812 12.546875 77.234375 17.5625 79.1875 C 22.578125 81.140625 27.210938 81.921875 29.5625 82 C 30.226562 82.023438 30.859375 81.71875 31.25 81.1875 L 36.125 74.4375 C 40.054688 75.367188 44.664062 76 50 76 C 55.335938 76 59.945312 75.367188 63.875 74.4375 L 68.75 81.1875 C 69.140625 81.71875 69.773438 82.023438 70.4375 82 C 72.789062 81.921875 77.421875 81.140625 82.4375 79.1875 C 87.453125 77.234375 92.828125 74.132812 95.75 69 C 95.921875 68.695312 96.007812 68.351562 96 68 C 96 58.117188 93.898438 47.617188 91.3125 39.0625 C 90.015625 34.789062 88.59375 30.96875 87.25 28 C 85.90625 25.03125 84.820312 22.960938 83.375 21.625 C 83.335938 21.601562 83.289062 21.578125 83.25 21.5625 C 74.921875 14.875 62.1875 14 62.1875 14 C 62.039062 13.984375 61.898438 13.984375 61.75 14 C 61.054688 14.09375 60.46875 14.546875 60.1875 15.1875 C 60.1875 15.1875 59.507812 16.679688 59.0625 18.8125 C 55.164062 18.1875 51.882812 18 50 18 C 48.117188 18 44.835938 18.1875 40.9375 18.8125 C 40.492188 16.679688 39.8125 15.1875 39.8125 15.1875 C 39.46875 14.40625 38.664062 13.929688 37.8125 14 Z M 36.5625 18.3125 C 36.710938 18.71875 36.8125 19.101562 36.9375 19.5625 C 32.429688 20.609375 27.492188 22.320312 22.875 25.1875 C 22.148438 25.492188 21.671875 26.195312 21.648438 26.984375 C 21.632812 27.765625 22.078125 28.492188 22.78125 28.835938 C 23.492188 29.171875 24.335938 29.070312 24.9375 28.5625 C 34.203125 22.820312 45.992188 22 50 22 C 54.007812 22 65.796875 22.820312 75.0625 28.5625 C 75.664062 29.070312 76.507812 29.171875 77.21875 28.835938 C 77.921875 28.492188 78.367188 27.765625 78.351562 26.984375 C 78.328125 26.195312 77.851562 25.492188 77.125 25.1875 C 72.507812 22.320312 67.570312 20.609375 63.0625 19.5625 C 63.1875 19.101562 63.289062 18.71875 63.4375 18.3125 C 65.71875 18.59375 74.585938 19.789062 80.625 24.5625 C 81.015625 24.921875 82.375 26.921875 83.625 29.6875 C 84.875 32.453125 86.1875 36.054688 87.4375 40.1875 C 89.875 48.25 91.84375 58.195312 91.9375 67.3125 C 89.664062 70.992188 85.398438 73.726562 81 75.4375 C 77 76.992188 73.265625 77.6875 71.3125 77.875 L 67.9375 73.3125 C 69.65625 72.757812 71.203125 72.15625 72.5625 71.5625 C 77.609375 69.34375 80.3125 67 80.3125 67 C 81.140625 66.257812 81.210938 64.984375 80.46875 64.15625 C 79.726562 63.328125 78.453125 63.257812 77.625 64 C 77.625 64 75.53125 65.914062 70.9375 67.9375 C 69.25 68.679688 67.203125 69.414062 64.875 70.0625 C 64.335938 70 63.796875 70.15625 63.375 70.5 C 59.648438 71.40625 55.21875 72 50 72 C 44.742188 72 40.304688 71.351562 36.5625 70.4375 C 36.140625 70.15625 35.625 70.039062 35.125 70.125 C 32.789062 69.476562 30.757812 68.679688 29.0625 67.9375 C 24.46875 65.914062 22.375 64 22.375 64 C 21.921875 63.578125 21.296875 63.398438 20.6875 63.5 C 19.914062 63.617188 19.273438 64.171875 19.0625 64.929688 C 18.84375 65.679688 19.09375 66.492188 19.6875 67 C 19.6875 67 22.390625 69.34375 27.4375 71.5625 C 28.796875 72.15625 30.34375 72.757812 32.0625 73.3125 L 28.6875 77.875 C 26.734375 77.6875 23 76.992188 19 75.4375 C 14.601562 73.726562 10.335938 70.992188 8.0625 67.3125 C 8.15625 58.195312 10.125 48.25 12.5625 40.1875 C 13.8125 36.054688 15.125 32.453125 16.375 29.6875 C 17.625 26.921875 18.984375 24.921875 19.375 24.5625 C 25.414062 19.789062 34.28125 18.59375 36.5625 18.3125 Z M 37 42 C 31.898438 42 28 46.632812 28 52 C 28 57.367188 31.898438 62 37 62 C 42.101562 62 46 57.367188 46 52 C 46 46.632812 42.101562 42 37 42 Z M 63 42 C 57.898438 42 54 46.632812 54 52 C 54 57.367188 57.898438 62 63 62 C 68.101562 62 72 57.367188 72 52 C 72 46.632812 68.101562 42 63 42 Z M 37 46 C 39.632812 46 42 48.53125 42 52 C 42 55.46875 39.632812 58 37 58 C 34.367188 58 32 55.46875 32 52 C 32 48.53125 34.367188 46 37 46 Z M 63 46 C 65.632812 46 68 48.53125 68 52 C 68 55.46875 65.632812 58 63 58 C 60.367188 58 58 55.46875 58 52 C 58 48.53125 60.367188 46 63 46 Z M 63 46 "/>
</g>
</svg>
